<?xml version="1.0" encoding="utf-8"?>
<!-- Generator: Adobe Illustrator 23.0.1, SVG Export Plug-In . SVG Version: 6.00 Build 0)  -->
<svg version="1.1" id="Слой_1" xmlns="http://www.w3.org/2000/svg" xmlns:xlink="http://www.w3.org/1999/xlink" x="0px" y="0px"
	 viewBox="0 0 38 40" style="enable-background:new 0 0 38 40;" xml:space="preserve">
<style type="text/css">
	.st0{fill:#7B5382;}
	.st1{fill-rule:evenodd;clip-rule:evenodd;fill:#FFFFFF;}
</style>
<circle class="st0" cx="18" cy="20" r="15"/>
<path class="st1" d="M24.49,21.38c0.6,0.58,1.23,1.13,1.76,1.77c0.24,0.29,0.46,0.58,0.63,0.91c0.24,0.47,0.02,0.99-0.4,1.02
	l-2.62,0c-0.68,0.06-1.22-0.22-1.67-0.68c-0.36-0.37-0.7-0.76-1.05-1.15c-0.14-0.16-0.29-0.3-0.47-0.42
	c-0.36-0.23-0.67-0.16-0.87,0.21c-0.21,0.38-0.26,0.8-0.28,1.22c-0.03,0.62-0.21,0.78-0.83,0.81c-1.33,0.06-2.58-0.14-3.75-0.81
	c-1.03-0.59-1.83-1.42-2.52-2.36c-1.35-1.83-2.39-3.85-3.32-5.92c-0.21-0.47-0.06-0.72,0.46-0.73c0.86-0.02,1.71-0.02,2.57,0
	c0.35,0.01,0.58,0.2,0.71,0.53c0.46,1.14,1.03,2.22,1.74,3.22c0.19,0.27,0.38,0.53,0.66,0.72c0.3,0.21,0.54,0.14,0.68-0.2
	c0.09-0.21,0.13-0.45,0.15-0.68c0.07-0.79,0.08-1.58-0.04-2.37c-0.07-0.49-0.35-0.81-0.84-0.9c-0.25-0.05-0.21-0.14-0.09-0.28
	c0.21-0.25,0.41-0.4,0.8-0.4h2.96c0.47,0.09,0.57,0.3,0.63,0.77l0,3.29c-0.01,0.18,0.09,0.72,0.42,0.84
	c0.26,0.09,0.43-0.12,0.59-0.29c0.71-0.75,1.22-1.64,1.67-2.56c0.2-0.41,0.37-0.83,0.54-1.25c0.12-0.31,0.32-0.47,0.67-0.46l2.85,0
	c0.08,0,0.17,0,0.25,0.02c0.48,0.08,0.61,0.29,0.46,0.76c-0.23,0.74-0.69,1.35-1.13,1.97c-0.48,0.66-0.98,1.29-1.46,1.96
	C23.92,20.55,23.95,20.86,24.49,21.38z"/>
</svg>
