<?xml version="1.0" encoding="utf-8"?>
<!-- Generator: Adobe Illustrator 23.0.1, SVG Export Plug-In . SVG Version: 6.00 Build 0)  -->
<svg version="1.1" id="Слой_1" xmlns="http://www.w3.org/2000/svg" xmlns:xlink="http://www.w3.org/1999/xlink" x="0px" y="0px"
	 viewBox="0 0 33.56 34.95" style="enable-background:new 0 0 33.56 34.95;" xml:space="preserve">
<style type="text/css">
	.st0{fill:#BBBBBB;}
	.st1{fill:#FFFFFF;}
</style>
<circle class="st0" cx="16.81" cy="18.17" r="15"/>
<path class="st1" d="M19.62,10.67H14c-2.59,0-4.69,2.1-4.69,4.69v5.63c0,2.59,2.1,4.69,4.69,4.69h5.63c2.59,0,4.69-2.1,4.69-4.69
	v-5.63C24.31,12.77,22.21,10.67,19.62,10.67z M22.9,20.98c0,1.81-1.47,3.28-3.28,3.28H14c-1.81,0-3.28-1.47-3.28-3.28v-5.63
	c0-1.81,1.47-3.28,3.28-3.28h5.63c1.81,0,3.28,1.47,3.28,3.28V20.98z"/>
<path class="st1" d="M16.78,14.42c-2.07,0-3.75,1.68-3.75,3.75s1.68,3.75,3.75,3.75s3.75-1.68,3.75-3.75S18.85,14.42,16.78,14.42z
	 M16.78,20.51c-1.29,0-2.34-1.05-2.34-2.34c0-1.29,1.05-2.34,2.34-2.34c1.29,0,2.34,1.05,2.34,2.34
	C19.12,19.46,18.07,20.51,16.78,20.51z"/>
</svg>
