<?xml version="1.0" encoding="utf-8"?>
<!-- Generator: Adobe Illustrator 23.0.1, SVG Export Plug-In . SVG Version: 6.00 Build 0)  -->
<svg version="1.1" id="Слой_1" xmlns="http://www.w3.org/2000/svg" xmlns:xlink="http://www.w3.org/1999/xlink" x="0px" y="0px"
	 viewBox="0 0 32.88 34.59" style="enable-background:new 0 0 32.88 34.59;" xml:space="preserve">
<style type="text/css">
	.st0{fill:#BBBBBB;}
	.st1{fill-rule:evenodd;clip-rule:evenodd;fill:#FFFFFF;}
</style>
<circle class="st0" cx="16.22" cy="17.27" r="15"/>
<path class="st1" d="M22.88,18.82c0.6,0.59,1.24,1.14,1.78,1.79c0.24,0.29,0.47,0.59,0.64,0.92c0.25,0.48,0.02,1-0.4,1.03l-2.65,0
	c-0.68,0.06-1.23-0.22-1.69-0.69c-0.37-0.37-0.71-0.77-1.06-1.16c-0.14-0.16-0.3-0.31-0.48-0.42c-0.36-0.23-0.68-0.16-0.88,0.21
	c-0.21,0.38-0.26,0.81-0.28,1.24c-0.03,0.62-0.22,0.79-0.84,0.82c-1.34,0.06-2.61-0.14-3.79-0.82c-1.04-0.6-1.85-1.44-2.55-2.39
	c-1.37-1.86-2.42-3.89-3.36-5.99c-0.21-0.47-0.06-0.73,0.46-0.73c0.86-0.02,1.73-0.02,2.6,0c0.35,0.01,0.58,0.21,0.72,0.54
	c0.47,1.15,1.04,2.25,1.76,3.26c0.19,0.27,0.39,0.54,0.66,0.73c0.31,0.21,0.54,0.14,0.69-0.2c0.09-0.22,0.13-0.45,0.15-0.68
	c0.07-0.8,0.08-1.6-0.04-2.4c-0.07-0.5-0.35-0.82-0.85-0.91c-0.25-0.05-0.22-0.14-0.09-0.29c0.21-0.25,0.41-0.4,0.81-0.4h3
	c0.47,0.09,0.58,0.31,0.64,0.78l0,3.33c-0.01,0.18,0.09,0.73,0.42,0.85c0.26,0.09,0.44-0.13,0.6-0.29c0.72-0.76,1.23-1.66,1.69-2.59
	c0.2-0.41,0.38-0.84,0.55-1.26c0.13-0.32,0.32-0.47,0.68-0.46l2.88,0c0.09,0,0.17,0,0.25,0.02c0.49,0.08,0.62,0.29,0.47,0.77
	c-0.24,0.74-0.7,1.37-1.15,1.99c-0.48,0.67-1,1.31-1.47,1.98C22.3,17.98,22.34,18.28,22.88,18.82z"/>
</svg>
