<?xml version="1.0" encoding="utf-8"?>
<!-- Generator: Adobe Illustrator 23.0.1, SVG Export Plug-In . SVG Version: 6.00 Build 0)  -->
<svg version="1.1" id="Слой_1" xmlns="http://www.w3.org/2000/svg" xmlns:xlink="http://www.w3.org/1999/xlink" x="0px" y="0px"
	 viewBox="0 0 40 40" style="enable-background:new 0 0 40 40;" xml:space="preserve">
<style type="text/css">
	.st0{fill:#7B5382;}
	.st1{fill:#FFFFFF;}
</style>
<circle class="st0" cx="19.64" cy="20" r="15"/>
<path class="st1" d="M22.45,12.5h-5.63c-2.59,0-4.69,2.1-4.69,4.69v5.63c0,2.59,2.1,4.69,4.69,4.69h5.63c2.59,0,4.69-2.1,4.69-4.69
	v-5.63C27.14,14.6,25.04,12.5,22.45,12.5z M25.73,22.81c0,1.81-1.47,3.28-3.28,3.28h-5.63c-1.81,0-3.28-1.47-3.28-3.28v-5.63
	c0-1.81,1.47-3.28,3.28-3.28h5.63c1.81,0,3.28,1.47,3.28,3.28V22.81z"/>
<path class="st1" d="M19.64,16.25c-2.07,0-3.75,1.68-3.75,3.75s1.68,3.75,3.75,3.75s3.75-1.68,3.75-3.75S21.71,16.25,19.64,16.25z
	 M19.64,22.34c-1.29,0-2.34-1.05-2.34-2.34c0-1.29,1.05-2.34,2.34-2.34c1.29,0,2.34,1.05,2.34,2.34
	C21.98,21.29,20.93,22.34,19.64,22.34z"/>
</svg>
